<svg version="1.0" xmlns="http://www.w3.org/2000/svg" width="2956" height="872" viewBox="0 0 2217 654"><path d="M463.6 152.2c-.8 1.3-33.5 57.9-72.6 125.8-39.2 67.9-71.9 124.3-72.7 125.2-2.6 2.9-5.2 2.2-7.1-2-1.5-3.2-1.8-9.1-2.2-47.7-.5-43.6-.5-44-2.8-48.7-1.9-3.9-6.1-7.9-22.3-21.4-19.4-16.1-22.2-19.3-18.3-20.8.9-.3 13.3-.6 27.7-.6 33 0 33.7.2 55 12 17.3 9.6 21.5 10.8 25.5 7.2 3.3-2.8 18.4-29.4 18.9-33.3.4-3 0-4.1-2.3-6.6-3.9-4.1-41.5-25.7-48.3-27.7-4.9-1.4-16.8-1.6-110.3-1.6-95 0-104.9.2-105.5 1.6-.4 1 .6 2.8 2.8 4.9 1.9 1.8 30.4 25.9 63.4 53.5 50.3 42.1 60.5 51 63 55.3l3 5.2.5 39.5c.5 37.4.6 39.7 2.6 44 2.7 5.8 48.2 84 50.2 86.2 2.3 2.6 5.9 2.2 7.9-.9 1-1.4 34-58.2 73.3-126.2 64.2-110.9 71.8-123.6 74.2-123.9 2-.2 3.2.5 5.1 3 3.5 4.8 26.7 45.2 26.7 46.6 0 2.3-2.6 1.2-16.4-6.8-14.8-8.6-19.3-9.8-23.4-6.3-1.1 1-5.7 8.1-10.3 15.8-6.7 11.4-8.3 14.8-8.3 18.2-.1 3 .5 4.8 1.9 6.2 2.6 2.6 190.2 111.1 192.1 111.1 1.8 0 1.8-1.4-.2-5.1-4.1-8-161.8-280.6-163.1-282.2-2.2-2.4-6-2.1-7.7.5zM671 259v22h58v133h45V281h44v-44H671v22zm169 66.5V414h133v-44h-88v-31h75v-36h-75v-22h88v-44H840v88.5zm203.8-87.1c-27 6.2-47.6 23.2-57.4 47.6-5.7 13.9-6.8 20.2-6.8 39.5-.1 15.7.2 19.1 2.2 27 6.4 24.5 21 43.3 41.7 53.5 11.9 5.8 17.9 7.1 35 7.7 13 .4 16.2.2 24-1.6 22.8-5.5 39.7-19.6 48.4-40.4 2.9-7 7.1-24.8 7.1-30.1V339h-46v6.2c0 10.7-7.2 22.3-16.3 26.7-8.8 4.1-22.9 3.5-31.3-1.4-15.6-9.1-23-31.3-19-57.4 2-12.8 5.8-21.2 12.8-27.7 6-5.6 11.9-8.3 20-9.1 17.4-1.6 32.1 8.4 34.4 23.5l.6 4.2 21.7-.2 21.6-.3-.3-5c-1-16.7-10.4-34.2-24-45-6.8-5.5-19.3-11.7-28.2-14-8.5-2.3-32.3-2.9-40.2-1.1zm106.2 87.1V414h45v-75h66v75h45V237h-45v66h-66v-66h-45v88.5zm186 0V414h14V237h-14v88.5zm45 0V414h13v-77.5c0-74.4.1-77.5 1.8-77.5 1.3 0 16.3 21.8 53.3 77.5l51.4 77.5h13.5V237h-9v73.1c0 58-.3 73-1.2 72.7-.7-.3-24.3-33-52.3-72.9l-51-72.4-9.8-.3-9.7-.3v88.6zm185.5-.9c-18.1 48.2-33.1 88-33.3 88.5-.2.5 10 .9 23.7.9h24l1.1-3.8c.5-2 3.4-11.8 6.4-21.7l5.3-18 27.6-.3 27.6-.2 1.9 6.2c1 3.5 3.8 13.4 6.3 22l4.4 15.8h24.3c13.3 0 24.2-.3 24.2-.6s-14.7-40.2-32.7-88.5l-32.7-87.9h-45.1l-33 87.6zm61.9-6.8c3.6 10.6 6.6 19.8 6.6 20.3s-6 .9-14 .9c-7.7 0-14-.4-14-.8 0-.5 2.9-9.1 6.5-19.3 8.1-22.8 7.5-21.3 7.9-20.8.2.2 3.3 9.1 7 19.7zm126.1-79.4c-24 5.5-40.8 20.5-45.5 40.5-1.8 7.7-.8 22.1 2.1 29.6 1.7 4.4 4 7.7 8.9 12.6 10.7 10.7 19.9 14.8 51.5 22.8 25.5 6.5 33.2 11.5 32.1 20.4-.9 8.1-8.7 12.6-23 13.4-7 .4-10.6.2-15.1-1.2-11.9-3.4-16.4-9.6-16.5-22.3V347l-22.2.2-22.3.3-.3 4.4c-.2 2.4.1 8.2.7 12.9 1.9 15 9.3 27.1 22.2 36.1 12.7 9 28.1 13.1 49 13.1 18.9 0 33.5-3.4 45.5-10.6 18.8-11.3 28.9-32.5 25.4-53.8-2.1-13-9.5-24.1-21.4-31.7-8-5.2-13.5-7.2-39.8-14-22.6-5.8-32-9.3-33.2-12.4-1.3-3.4-.6-9.3 1.4-11.8 3.4-4.3 9.6-6 20.2-5.5 14.1.6 20.6 4.9 23.3 15.5l1.2 4.8h38.8l.3-4.9c.5-7.3-1.4-17.3-4.4-23.5-3.6-7.3-14.2-17.9-21.6-21.5-10.4-5.1-18.9-6.8-35.8-7.2-10.8-.2-17.3.1-21.5 1zm104.5 87.1V414h45V237h-45v88.5zm87.3-.2l-33.1 88.2 23.5.3c13 .1 23.8 0 24-.2.3-.3 2.3-6.4 4.4-13.8 2.2-7.3 5.1-17 6.5-21.6l2.5-8.2 27.6.2 27.6.3 6.1 21.5 6.2 21.5 24.7.3 24.7.2-2.5-6.6c-1.4-3.6-16.3-43.5-33.1-88.5l-30.6-81.9h-45.3l-33.2 88.3zm62.9-6.6c3.7 10.8 6.6 19.8 6.4 20-.2.2-6.6.2-14.3.1l-14.1-.3 7.1-20.2c3.9-11.2 7.3-20 7.6-19.7.3.2 3.6 9.3 7.3 20.1z"/></svg>