<svg version="1.0" xmlns="http://www.w3.org/2000/svg" width="692" height="1046.667" viewBox="0 0 519 785"><path d="M0 392.5V785h519V0H0v392.5zm90-8.6c3.6 1.1 7.5 2.7 8.7 3.6l2.2 1.5-4.6 6.6c-3.2 4.6-5 6.4-6.2 6-.9-.2-3.6-1.2-6.1-2.2-5.9-2.2-23.5-3-26.9-1.2-2.9 1.5-4.5 6.3-3 8.9 1.6 3 5.7 4.6 16.9 6.3 26.7 4.3 34.2 10.4 32.7 26.9-1.4 15.3-11.4 21.7-34.3 21.7-15.5 0-26-2.4-35.2-8l-3.3-2 4.3-6c2.3-3.3 4.5-6 4.9-6 .4 0 3.5 1.3 7 3 8.5 3.9 19.5 5.5 28.4 4.1C83.6 445.9 86 444 86 439c0-6.3-1.6-6.9-26-11.4-11.9-2.2-18.9-5.9-21.8-11.6-2-3.8-2.3-5.7-2-12.6.3-6.8.7-8.7 3-12.1 2.9-4.4 8.7-7.7 15.9-9.3 7.3-1.5 27.5-.5 34.9 1.9zm224.2 25.3c.3 25.4.4 27.5 2.4 30.8 3 5.2 6.4 6.5 17.1 6.5 7.7 0 9.6-.3 12-2.1 5.5-4.1 5.8-5.5 6.1-35.2l.3-27.2h17l-.3 30.2-.3 30.3-2.8 5.7c-5.1 10.3-14.3 14.3-33.2 14.2-20.2 0-30.7-5.6-34.6-18.3-1.2-3.9-2.6-57.9-1.6-60.5.5-1.3 2.4-1.6 9.1-1.6h8.4l.4 27.2zM130 392.5v8.5h14v6.9c0 4.6-.4 7-1.2 7.3-.7.3-3.9.4-7 .3l-5.8-.1v14.8c0 16.9 0 16.8 8.9 16.8h5.1v14h-9.7c-11.3 0-15.4-1.5-19-6.9-2.2-3.2-2.3-4.4-2.3-20.7V416h-10v-14.9l5.2-.3 5.3-.3 1.3-7.2 1.4-7.1 4.7-1c9.5-2 9.1-2.3 9.1 7.3zm146 0v8.5h14.1l-.3 7.2-.3 7.3H276v14.2c0 16.8.3 17.3 8.6 17.3h5.4v14h-9.7c-10.9 0-15.1-1.4-18.7-6.3-1.9-2.6-2.2-4.7-2.6-21l-.5-18.2-4.5-.1-4.5-.1-.3-7.2-.3-7.1h10.8l1.4-7.3 1.4-7.2 4.5-1.2c9.1-2.3 9-2.4 9 7.2zm-85.9 8.6c4.8 1.2 8.3 4 10.4 8.6 1.4 3 2 7.4 2.4 20.3.6 16.1.6 16.5 2.9 16.8 2 .3 2.2.8 2.2 7.3v6.9h-7c-6.2 0-7.4-.3-9.6-2.5l-2.5-2.5-2.5 1.9c-3.6 2.8-11.8 4.4-21 4-13.1-.7-18.8-5.1-20-15.6-.8-6.7 1.1-13.1 5.1-16.9 4.2-3.9 12-6.1 25.3-7 10.9-.7 12.1-1.5 8.2-5.4-1.6-1.6-3.3-2-9.2-2-4 .1-9.1.8-11.3 1.6-2.2.8-4.7 1.7-5.5 2-1 .3-2.8-1.6-5.4-5.7-4.4-6.9-4.5-6.6 4.1-9.9 9.8-3.7 23.3-4.4 33.4-1.9zm231.2.1c11.2 2.8 17.7 19.7 14.7 38.2-1.3 8.4-3.8 13.5-8.5 17.4-4.8 3.9-9.6 5.2-19.2 5.2-6.4 0-8.9-.5-12.6-2.4l-4.7-2.3V479h-17v-76.8l3.1-.6c1.7-.3 4.9-.6 7-.6 3.2 0 3.9.3 3.9 2 0 2.5.1 2.5 5.3-.2 6.8-3.5 18-4.1 28-1.6zm59.2 0c4.7 1 10.5 3.4 10.5 4.3 0 .9-7.3 12.5-7.9 12.5-.3 0-2.4-.7-4.6-1.4-4.1-1.4-10.1-2.1-16.7-1.8-2.7.2-4.1.8-4.9 2.4-1.8 3.4 1.5 5.2 11.7 6.8 10.6 1.5 16 3.3 19.3 6.3 5.4 5 6.6 14.2 2.9 21.7-1.8 3.5-3.5 5.1-7.3 7-4.6 2.3-6 2.5-19 2.5-12.1-.1-14.8-.4-19.6-2.3-9.8-3.9-9.8-4-4.9-10.9l4.2-6.1 5.7 2.6c4.3 2 7.7 2.7 14.4 3 9.5.5 11.7-.3 11.7-4.4 0-3-1.8-3.7-13-5.3-9.9-1.4-18.1-4.8-20.5-8.5-4-6.1-4.1-16-.1-21.8 5.1-7.6 20.7-10.3 38.1-6.6zm-234 7.3v8l-4.5.5c-5.5.7-8.5 2.3-10.7 5.7-1.5 2.2-1.8 5.7-2.2 20.5l-.3 17.8H212v-58.8l3.1-.6c1.7-.3 4.9-.6 6.9-.6 3.4 0 3.9.3 4.5 2.9l.6 3 3.6-2.4c1.9-1.4 5.1-2.7 7.2-3.1 2-.3 4.1-.7 4.6-.9 3.4-1.2 4 0 4 8zm101.7 115.6l.3 54.1 29.5-53.9 29.5-53.8 40.8-.3 40.8-.2-1.2 2.2c-.7 1.3-15.8 26.1-33.7 55.3-29.5 48.1-32.4 53.1-31.5 55.5.6 1.4 18.9 34.4 40.6 73.5 21.8 39 39.5 71 39.4 71.1-.9.9-86.9 9.6-87.7 8.8-.5-.5-13.2-27.5-28.3-59.9l-27.5-59-5.6-.3-5.6-.3V733h-76.7l-.6-73.7c-.4-40.5-.7-99.4-.7-130.9v-57.3l2.3-.4c1.2-.2 18.7-.5 38.9-.6l36.8-.1.2 54.1zM108 521v50h74V471h79v262h-78l-.2-49.3c-.1-27-.2-51.2-.2-53.7l-.1-4.5-37.2-.3-37.3-.2v108H30V471h78v50z"/><path d="M169.1 435c-7.2 1.1-10.3 6.8-6.1 11 1.6 1.6 3.3 2 8.5 2 3.5 0 7.6-.5 9-1.2 3.2-1.4 5.5-5.6 5.5-9.8v-3l-6.2.1c-3.5.1-8.3.5-10.7.9zm230.1-18.9c-5.9 1.7-9.1 10.6-7.6 20.6.9 6.3 4.5 9.9 10.8 10.8 6.7 1 12.2-.8 14.6-4.8 2.5-4.1 2.8-17.3.5-21.7-2.8-5.4-9.9-7.3-18.3-4.9z"/></svg>