<svg version="1.0" xmlns="http://www.w3.org/2000/svg" width="800" height="473.333" viewBox="0 0 600 355"><path d="M457.3 157.4c-1.3 2.5-1.8 4.6-1.3 4.6.6 0 1.3-.7 1.6-1.5.4-.8 1.5-1.5 2.5-1.5 1.4 0 1.9.7 1.9 2.5 0 2.2-.5 2.5-3.7 2.6-3.4.2-3.5.2-.8.6 4.8.7 5.1 1.9 1.1 5.9-2 2-3.4 3.9-3.1 4.2.3.3 2.2-1.1 4.3-3.1l3.7-3.6 2.8 2c1.5 1.2 2.7 1.6 2.7 1 0-.6-1.1-1.8-2.5-2.7-2.9-1.9-2.4-3.4 1.3-3.5 2.7-.1 2.7-.1-.3-.8-2.1-.4-3.1-1.3-3.3-2.9-.3-1.8.1-2.2 2.2-2.2 1.4 0 2.6-.5 2.6-1 0-.6-2-1-4.4-1-3.8 0-4.5-.3-4.8-2.1-.2-1.7-.8-1.2-2.5 2.5zm47.5-1.9c.4 2.5.4 2.5-6.7 2.5-7.1 0-7.1 0-7 2.7 0 2.7.1 2.7.9.5.9-2.1 1.4-2.2 14.3-2.2s13.4.1 14.5 2.2c1 2.3 1.1 2.3 1.1-.4.1-2.7 0-2.7-7.1-3-6.5-.3-7.4-.6-8.3-2.6-1.3-3-2.3-2.8-1.7.3zM68 181v26h10v-9.1c0-8.2-.2-9.1-2-9.6-1.6-.4-2-1.4-2-4.4V180h18v27h15v-16c0-11.4.3-16 1.2-16 .6 0 2.6 1.1 4.4 2.5 1.8 1.4 3.5 2.5 3.9 2.5.3 0 2.3-1.1 4.3-2.5 6.2-4.2 6.2-4.2 6.2 13.5v16h12v-52h-6.6c-5.7 0-7.1.4-11 3.1l-4.5 3.1-4.8-3.1-4.8-3.1H68v26zm20.8-19.4c7.2 5 3.4 14.4-5.8 14.4-8.6 0-11.4-11.9-3.5-15 3.2-1.4 6.9-1.1 9.3.6zm69.7-4.9c-4.4 2.3-8.4 6.3-10.8 10.8-2 3.6-2.2 5.9-2.5 21.7l-.4 17.8h26.5c22.5 0 26.9-.2 29.8-1.7 6-2.9 9.1-5.5 12-10.1l2.9-4.6V155h-27.2c-22.9.1-27.8.3-30.3 1.7zm19.3 23.5l.3 12.8H158v-12.3c0-6.8.3-12.7.7-13.1.4-.4 4.8-.5 9.8-.4l9 .3.3 12.7zm45.2.8v26h38l.2-19.8.3-19.7h19l.3 19.7.2 19.8h13.2l-.4-18.3c-.3-17.9-.4-18.3-3.1-23-1.9-3.3-4.4-5.6-8-7.7l-5.2-3H223v26zm77 0v26h71.1l-.3-6.8-.3-6.7-15.7-.3-15.8-.3v-5.8l9.3-.3 9.2-.3.3-6.3.3-6.2h-9.4c-9.1 0-9.5-.1-9.9-2.3-.9-4.6-.5-4.7 16.3-4.7H371v-12h-71v26zm77.7-25.3c-1 .9-.8 28.5.1 30 .4.7 3.8 1.3 8.2 1.5l7.5.3.3 9.7.3 9.8h30.2l3.9-3.9c3.6-3.7 3.8-4.3 3.8-10V187h15.9l.3-14.4c.2-7.9.2-15.1 0-16-.3-1.4-2.6-1.6-19.3-1.6H410v19h-20v-19h-5.8c-3.2 0-6.2.3-6.5.7zm95.7 2.7c-.3.7-.4 3.8-.2 6.7l.3 5.4h12l.3-4.4c.6-8.2-.1-9.1-6.4-9.1-3.7 0-5.6.4-6 1.4zm10.4 4.4c.4 5.4-1.1 7.4-5.2 7-2.9-.3-3.1-.6-3.4-4.7-.5-6.3.2-7.3 4.5-6.9 3.7.3 3.8.4 4.1 4.6z"/><path d="M496 162c0 .6 4.2 1 10.6 1 6.7 0 10.3-.4 9.9-1-.3-.6-5-1-10.6-1-5.9 0-9.9.4-9.9 1zm1.2 6.2l.3 3.3 8.8.3 8.7.3V165h-18.1l.3 3.2zm16.1-.8c.9 2.2-.2 2.6-7.5 2.6-5 0-6.8-.4-6.8-1.3 0-2.3 1.1-2.7 7.6-2.7 4.4 0 6.3.4 6.7 1.4zm-53.1 12.8l.3 6.3 9.4.3c6 .2 9.8-.1 10.7-.9.9-.7 1.4-3.1 1.4-6.5V174h-22.1l.3 6.2zm20.3-3.2c0 1.2-1.8 1.6-9.2 1.8-8.8.3-9.3.2-9.3-1.8s.5-2.1 9.3-1.8c7.4.2 9.2.6 9.2 1.8zm.1 5.2c1.4 2.2-2.4 3.4-10.3 3.4-7.3-.1-7.8-.2-8.1-2.4-.3-2.1-.1-2.2 8.7-2.2 5.7 0 9.2.4 9.7 1.2zm13.6-2l.3 6.3 10.6.3c12.9.3 14.2-.4 13.7-7.7l-.3-4.6-12.3-.3-12.3-.3.3 6.3zm11.3-4.2c1.3 2.1-1.7 4.1-5.4 3.8-2.9-.2-3.7-.8-3.9-2.6-.3-2 .1-2.2 4.2-2.2 2.5 0 4.8.5 5.1 1zm11.3 1.2c-.3 2-.9 2.3-4.8 2.3s-4.5-.3-4.8-2.3c-.3-2 0-2.2 4.8-2.2s5.1.2 4.8 2.2zm-11.3 4.8c1.2 2-1.7 4-5.6 4-3.5 0-3.9-.3-3.9-2.5 0-2.3.4-2.5 4.4-2.5 2.5 0 4.8.5 5.1 1zm11.5.5c0 2.5-3.6 3.6-9.2 2.6-.5 0-.8-1-.8-2.1 0-1.7.7-2 5-2 3.7 0 5 .4 5 1.5z"/></svg>