<svg width="59" height="59" xmlns="http://www.w3.org/2000/svg" xmlns:xlink="http://www.w3.org/1999/xlink" xmlns:svgjs="http://svgjs.com/svgjs" fill="#add136"><svg xmlns="http://www.w3.org/2000/svg" width="59" height="59" viewBox="2 1.999 58 58"><path paint-order="stroke fill markers" fill-rule="evenodd" d="M59.033 19.397a.965.965 0 01-.966-.965V5.452l-10.781 10.78a25.612 25.612 0 012.302 2.905l.018-.018c.149.215.28.445.423.665l.105.166a25.942 25.942 0 014.063 13.943c0 14.418-11.685 26.106-26.099 26.106C13.685 59.999 2 48.31 2 33.893 2 19.476 13.685 7.789 28.098 7.789a25.977 25.977 0 0114.725 4.556l-1.38 1.381A24.093 24.093 0 0028.097 9.72c-13.383 0-24.164 10.784-24.164 24.173 0 .347.038.686.052 1.032L16.01 22.899a.967.967 0 011.367 0L27.631 33.15l29.22-29.22H43.568a.967.967 0 010-1.932h15.466c.534 0 .967.432.967.966v15.467a.965.965 0 01-.967.965z"/></svg></svg>